<?xml version="1.0" standalone="no"?>
<!DOCTYPE svg PUBLIC "-//W3C//DTD SVG 20010904//EN"
 "http://www.w3.org/TR/2001/REC-SVG-20010904/DTD/svg10.dtd">
<svg version="1.0" xmlns="http://www.w3.org/2000/svg"
 width="500.000000pt" height="320.000000pt" viewBox="0 0 500.000000 320.000000"
 preserveAspectRatio="xMidYMid meet">
<metadata>
Created by potrace 1.14, written by Peter Selinger 2001-2017
</metadata>
<g transform="translate(0.000000,320.000000) scale(0.100000,-0.100000)"
fill="#000000" stroke="none">
<path d="M0 1600 l0 -1600 2500 0 2500 0 0 1600 0 1600 -2500 0 -2500 0 0
-1600z m4150 1300 c0 -5 -4 -10 -10 -10 -15 0 -12 -47 3 -53 7 -3 26 -2 42 0
20 4 32 1 42 -12 12 -17 13 -14 13 28 0 35 4 47 15 47 12 0 15 -14 15 -70 0
-56 -3 -70 -15 -70 -8 0 -15 8 -15 18 -1 16 -1 16 -11 0 -19 -33 -79 -19 -79
18 0 13 -4 24 -10 24 -5 0 -10 -13 -10 -30 0 -43 -29 -41 -32 3 -3 78 7 117
32 117 11 0 20 -4 20 -10z m220 -47 c1 -38 3 -44 11 -30 5 9 21 17 34 17 13 0
29 -8 34 -17 10 -17 10 -17 11 0 0 12 8 17 30 17 32 0 40 -14 15 -24 -8 -3
-15 -17 -15 -31 0 -16 -6 -25 -15 -25 -8 0 -15 5 -15 12 0 9 -3 9 -12 0 -18
-18 -55 -15 -67 6 -10 16 -10 16 -11 -1 0 -15 -7 -18 -36 -15 -44 4 -65 29
-48 56 6 9 21 18 33 20 16 3 21 10 21 33 0 19 5 29 15 29 11 0 15 -12 15 -47z
m-1674 -1203 c46 0 319 -76 353 -99 14 -9 33 -14 43 -13 10 2 18 -3 18 -10 0
-9 3 -9 10 2 6 10 10 11 10 3 0 -7 6 -13 14 -13 8 0 43 -13 78 -28 34 -16 77
-35 95 -42 17 -8 30 -17 27 -21 -2 -4 5 -5 16 -2 14 4 20 0 20 -11 0 -10 4
-15 9 -12 4 3 34 -8 66 -26 41 -22 53 -33 43 -39 -8 -6 1 -9 27 -9 29 0 55
-10 93 -35 29 -20 50 -40 47 -45 -4 -6 1 -7 11 -3 12 4 15 3 10 -5 -4 -7 -2
-10 6 -7 8 3 35 -11 60 -31 26 -20 51 -33 57 -30 5 4 12 2 15 -3 4 -5 1 -13
-5 -16 -10 -7 11 -24 51 -41 8 -4 35 -29 60 -57 l45 -50 -42 28 c-24 15 -43
32 -43 36 0 5 -3 8 -7 7 -5 -1 -91 39 -193 90 -336 166 -658 253 -993 269
l-127 6 -144 -96 -145 -96 16 37 c8 20 29 64 45 96 l30 59 -74 -7 c-218 -20
-427 -64 -643 -137 -122 -41 -367 -154 -459 -211 -28 -17 -59 -31 -69 -30 -9
0 -15 -3 -12 -8 3 -5 1 -11 -4 -14 -5 -4 -12 -2 -15 3 -9 13 142 140 262 222
85 57 110 69 145 70 30 0 36 3 23 8 -16 6 5 20 100 68 115 58 305 136 331 136
7 0 13 4 13 10 0 5 6 7 13 4 6 -2 20 0 31 5 14 7 16 7 11 -2 -4 -7 10 -3 31 8
48 25 262 82 309 82 l35 0 -26 52 c-14 28 -41 84 -59 124 l-33 72 188 -124
c158 -104 194 -124 226 -124z m-1356 -1240 c0 -23 4 -30 20 -30 10 0 24 -8 30
-17 10 -17 10 -17 20 0 13 20 50 23 68 5 9 -9 12 -9 12 1 0 8 12 11 38 9 35
-3 37 -5 40 -40 2 -29 0 -38 -12 -38 -11 0 -16 10 -16 31 0 17 -4 28 -10 24
-5 -3 -10 -17 -10 -31 0 -15 -6 -24 -15 -24 -8 0 -15 5 -15 12 0 9 -3 9 -12 0
-18 -18 -55 -15 -67 6 -10 16 -10 16 -11 0 0 -28 -28 -21 -32 7 -2 14 -7 26
-13 26 -5 0 -11 -12 -13 -26 -5 -35 -22 -31 -22 5 0 17 -4 30 -10 30 -5 0 -10
-13 -10 -30 0 -45 -27 -39 -32 8 -3 20 -3 45 0 55 5 21 32 23 32 2 0 -8 5 -15
10 -15 6 0 10 14 10 30 0 17 5 30 10 30 6 0 10 -13 10 -30z"/>
</g>
</svg>
